<svg width="155" height="177" viewBox="0 0 155 177" fill="none" xmlns="http://www.w3.org/2000/svg">
<path fill-rule="evenodd" clip-rule="evenodd" d="M58.5786 9.55615C11.2938 36.8234 3.98926 41.1335 2.07726 42.8933L0 44.8051V88.5V132.195L2.07726 134.131C3.21929 135.196 12.4635 140.853 22.619 146.702C32.7745 152.552 48.7481 161.761 58.117 167.169C67.485 172.576 76.1375 177 77.345 177C78.5517 177 92.2828 169.642 107.858 160.648C152.274 135.002 153.568 134.192 154.282 131.592C155.269 127.994 155.225 47.7075 154.234 45.0924C153.284 42.5838 152.542 42.1241 107.807 16.347C92.2044 7.35616 78.4742 0 77.2943 0C76.1153 0 67.6927 4.2999 58.5786 9.55615ZM110.325 34.2972C125.559 43.0851 138.542 50.6906 139.176 51.1984C140.064 51.9092 140.33 60.5368 140.33 88.6446V125.167L136.904 127.221C135.021 128.351 120.817 136.61 105.342 145.575L77.2056 161.875L63.2991 153.779C55.6502 149.326 41.499 141.119 31.8513 135.541L14.31 125.401V88.513V51.6256L45.6996 33.3631L77.0893 15.0997L79.859 16.7094C81.3823 17.5944 95.0922 25.5084 110.325 34.2972ZM84.7152 59.0772C82.516 61.571 58.1632 110.959 58.1632 112.926C58.1632 113.881 59.0246 115.76 60.077 117.103C62.3251 119.972 67.2856 120.449 69.697 118.028C72.4806 115.234 96.0154 66.8745 96.0154 63.9489C96.0154 62.3976 95.1965 60.3403 94.169 59.3089C91.8489 56.9801 86.677 56.8531 84.7152 59.0772ZM34.7936 71.002C15.608 88.9216 15.608 88.0784 34.7936 105.998C43.1746 113.827 45.6092 114.623 49.4341 110.783C53.3061 106.897 52.4937 104.396 44.7764 96.4353C40.9681 92.508 37.8522 88.9365 37.8522 88.5C37.8522 88.0635 41.0189 84.4401 44.89 80.4479C51.408 73.7237 51.8843 72.9676 51.3498 70.1874C51.0322 68.5361 49.8957 66.4566 48.8257 65.5641C45.2316 62.569 42.8229 63.5022 34.7936 71.002ZM105.408 66.0868C101.544 70.2162 102.587 73.5097 110.272 81.4358L117.142 88.5213L110.272 95.5763C104.411 101.593 103.401 103.1 103.401 105.829C103.401 109.756 106.549 113.058 110.292 113.058C112.378 113.058 114.932 111.057 122.862 103.213C128.336 97.7985 133.292 92.2114 133.875 90.7982C135.424 87.0451 133.755 84.4892 122.542 73.4411C111.921 62.9768 109.352 61.874 105.408 66.0868Z" fill="url(#paint0_linear_16_233)" fill-opacity="0.7"/>
<defs>
<linearGradient id="paint0_linear_16_233" x1="77.5" y1="0" x2="77.5" y2="177" gradientUnits="userSpaceOnUse">
<stop stop-color="#6832FF"/>
<stop offset="1" stop-color="#D359DF"/>
</linearGradient>
</defs>
</svg>
