<svg width="65" height="54" viewBox="0 0 65 54" fill="none" xmlns="http://www.w3.org/2000/svg">
<path d="M0 18.9097C0 19.1362 0.183599 19.3198 0.410079 19.3198H3.80508C4.03156 19.3198 4.21516 19.1362 4.21516 18.9097V13.6795C4.21516 13.5727 4.25682 13.4701 4.33129 13.3936L6.09451 11.5809C6.27126 11.3992 6.56889 11.4197 6.71896 11.624L12.2489 19.1524C12.3261 19.2576 12.4489 19.3198 12.5794 19.3198H16.618C16.9554 19.3198 17.1484 18.935 16.9467 18.6645L9.48745 8.66425C9.36719 8.50302 9.38162 8.27837 9.52151 8.13385L16.4066 1.0209C16.6585 0.760705 16.4741 0.325613 16.1119 0.325613H12.1664C12.053 0.325613 11.9446 0.372611 11.867 0.455429L4.9246 7.87098C4.67044 8.14246 4.21516 7.96261 4.21516 7.59072V0.735692C4.21516 0.509212 4.03156 0.325613 3.80508 0.325613H0.410079C0.183598 0.325613 0 0.509212 0 0.735692V18.9097Z" fill="white"/>
<path d="M19.9938 18.9097C19.9938 19.1362 20.1774 19.3198 20.4039 19.3198H23.7441C23.9706 19.3198 24.1542 19.1362 24.1542 18.9097V8.45157C24.1542 8.0599 24.6508 7.89114 24.8895 8.2017L33.3099 19.1595C33.3876 19.2606 33.5077 19.3198 33.6351 19.3198H36.6086C36.8351 19.3198 37.0187 19.1362 37.0187 18.9097V0.735693C37.0187 0.509213 36.8351 0.325613 36.6086 0.325613H33.2683C33.0418 0.325613 32.8582 0.509212 32.8582 0.735692V10.8129C32.8582 11.2047 32.3614 11.3734 32.1229 11.0626L24.0036 0.485983C23.926 0.384879 23.8058 0.325613 23.6783 0.325613H20.4039C20.1774 0.325613 19.9938 0.509212 19.9938 0.735692V18.9097Z" fill="white"/>
<path d="M50.9243 19.6454C56.8365 19.6454 61.1337 15.2225 61.1337 9.82269C61.1337 4.36865 56.8912 0 50.979 0C45.0669 0 40.7696 4.42292 40.7696 9.82269C40.7696 15.2767 45.0121 19.6454 50.9243 19.6454ZM50.979 15.7923C47.585 15.7923 45.1763 13.0788 45.1763 9.82269C45.1763 6.51228 47.5303 3.8531 50.9243 3.8531C54.3183 3.8531 56.727 6.56655 56.727 9.82269C56.727 13.1331 54.3731 15.7923 50.979 15.7923Z" fill="url(#paint0_linear_16_219)"/>
<path d="M0 41.6842C0 41.9107 0.183599 42.0943 0.410079 42.0943H3.80508C4.03156 42.0943 4.21516 41.9107 4.21516 41.6842V36.8061C4.21516 36.5796 4.39876 36.396 4.62524 36.396H7.41759C11.7149 36.396 15.1636 34.1167 15.1636 29.7209C15.1636 25.7864 12.3991 23.1001 7.82816 23.1001H0.410079C0.183599 23.1001 0 23.2837 0 23.5102V41.6842ZM4.62524 32.6786C4.39876 32.6786 4.21516 32.495 4.21516 32.2685V27.2819C4.21516 27.0554 4.39876 26.8718 4.62524 26.8718H7.47233C9.57991 26.8718 10.8937 27.8758 10.8937 29.7481C10.8937 31.4304 9.66203 32.6786 7.55445 32.6786H4.62524Z" fill="white"/>
<path d="M18.2831 41.6842C18.2831 41.9107 18.4667 42.0943 18.6932 42.0943H22.0882C22.3147 42.0943 22.4983 41.9107 22.4983 41.6842V36.454C22.4983 36.3472 22.5399 36.2446 22.6144 36.1681L24.3776 34.3554C24.5544 34.1737 24.852 34.1942 25.0021 34.3985L30.532 41.9269C30.6092 42.0321 30.732 42.0943 30.8625 42.0943H34.9011C35.2385 42.0943 35.4315 41.7095 35.2298 41.439L27.7705 31.4387C27.6503 31.2775 27.6647 31.0529 27.8046 30.9083L34.6897 23.7954C34.9416 23.5352 34.7572 23.1001 34.395 23.1001H30.4495C30.3361 23.1001 30.2277 23.1471 30.1501 23.2299L23.2077 30.6455C22.9535 30.917 22.4983 30.7371 22.4983 30.3652V23.5102C22.4983 23.2837 22.3147 23.1001 22.0882 23.1001H18.6932C18.4667 23.1001 18.2831 23.2837 18.2831 23.5102V41.6842Z" fill="white"/>
<path d="M36.3455 41.5224C36.2293 41.793 36.4278 42.0943 36.7223 42.0943H40.1225C40.2888 42.0943 40.4386 41.9939 40.5018 41.8401L42.0446 38.0883C42.1078 37.9345 42.2576 37.8341 42.4238 37.8341H49.9762C50.1424 37.8341 50.2922 37.9345 50.3554 38.0883L51.8982 41.8401C51.9614 41.9939 52.1112 42.0943 52.2775 42.0943H55.7872C56.0817 42.0943 56.2801 41.793 56.164 41.5224L48.3047 23.2128C48.24 23.0621 48.0918 22.9644 47.9279 22.9644H44.5816C44.4177 22.9644 44.2695 23.0621 44.2048 23.2128L36.3455 41.5224ZM44.2677 34.1439C43.9755 34.1439 43.7771 33.8471 43.8887 33.5771L45.821 28.9014C45.9607 28.5634 46.4393 28.5634 46.579 28.9014L48.5113 33.5771C48.6229 33.8471 48.4244 34.1439 48.1323 34.1439H44.2677Z" fill="white"/>
<circle cx="62.9151" cy="17.836" r="1.87746" fill="#B64EEA"/>
<defs>
<linearGradient id="paint0_linear_16_219" x1="49.5658" y1="5.75318" x2="58.7097" y2="17.7701" gradientUnits="userSpaceOnUse">
<stop stop-color="#6933FF"/>
<stop offset="0.458333" stop-color="#8A3FF6"/>
<stop offset="1" stop-color="#C553E5"/>
</linearGradient>
</defs>
</svg>
